# xmcd
#
# Track frame offsets: 
#        150
#        11054
#        30328
#        49752
#        68625
#        88411
#        106390
#        122126
#        136215
#        152613
#        171567
#        190460
#        211809
#        229761
#        259229
#
# Disc length: 3713 seconds
#
# Revision: 0
# Processed by: cddbd v1.5.2PL0 Copyright (c) Steve Scherf et al.
# Submitted via: ExactAudioCopy v0.99pb4
#
DISCID=d10e7f0f
DTITLE=Walt Wilkins - Vigil
DYEAR=2009
DGENRE=Country
TTITLE0=Be Home Soon
TTITLE1=This Is All I Know
TTITLE2=Dear God
TTITLE3=Grace Is Sleeping
TTITLE4=Kingdom Come
TTITLE5=Healing Waters, Fields of Grace
TTITLE6=Gypsy Line
TTITLE7=I'll See You On the Other Side
TTITLE8=Trains I Missed
TTITLE9=You're Always Safe With Me
TTITLE10=More Like the River
TTITLE11=Someone Somewhere Tonight
TTITLE12=The Songs I've Sung
TTITLE13=First Light
TTITLE14=Hidden Track
EXTD=
EXTT0=
EXTT1=
EXTT2=
EXTT3=
EXTT4=
EXTT5=
EXTT6=
EXTT7=
EXTT8=
EXTT9=
EXTT10=
EXTT11=
EXTT12=
EXTT13=
EXTT14=
PLAYORDER=
